<?xml version="1.0" encoding="UTF-8"?>
<svg version="1.1" xmlns="http://www.w3.org/2000/svg" width="320" height="320">
<path d="M0 0 C0.96711914 0.00757324 1.93423828 0.01514648 2.93066406 0.02294922 C9.96169079 0.18549574 15.81628539 1.02951467 22.0625 4.4375 C22.92875 4.88480469 23.795 5.33210938 24.6875 5.79296875 C37.4613128 12.8831952 44.21634631 23.46566951 48.6171875 37.1640625 C50.72719685 47.93621552 49.19467863 58.40220905 45.0625 68.4375 C45.0625 68.7675 45.0625 69.0975 45.0625 69.4375 C45.80113281 68.62667969 46.53976563 67.81585938 47.30078125 66.98046875 C49.99748914 64.0297947 52.71522881 61.09933108 55.44287109 58.17724609 C56.86190325 56.65297368 58.26978141 55.11833301 59.67578125 53.58203125 C71.48387202 41.14956243 86.18245438 31.79557189 101.0625 23.4375 C101.77664063 23.02886719 102.49078125 22.62023437 103.2265625 22.19921875 C105.0625 21.4375 105.0625 21.4375 109.0625 21.4375 C109.296875 23.765625 109.296875 23.765625 109.0625 26.4375 C107.515625 27.921875 107.515625 27.921875 105.3125 29.1875 C76.92033598 46.65619905 56.53329059 70.19536172 41.0625 99.4375 C42.30644531 99.60765625 43.55039063 99.7778125 44.83203125 99.953125 C70.64280292 103.64074882 70.64280292 103.64074882 80.0625 112.4375 C84.06258276 117.85213193 85.86462085 123.32254225 85.484375 130.05078125 C83.8304116 139.40792606 77.07560284 144.72916048 70.0625 150.4375 C70.70316406 150.86160156 71.34382812 151.28570312 72.00390625 151.72265625 C87.52121217 162.24482345 87.52121217 162.24482345 89.0625 169.4375 C89.89023864 175.404116 89.17388544 179.56337295 85.6875 184.515625 C81.17416747 189.85350866 76.14774418 194.88291485 68.92236328 195.67089844 C53.35525394 196.54590837 39.45915397 194.81181847 27.0625 184.4375 C25.02586908 182.50173995 23.6541878 180.79935931 22.0625 178.4375 C22.0625 177.1175 22.0625 175.7975 22.0625 174.4375 C26.11442408 174.96693259 28.1523776 176.05531909 31.1875 178.75 C39.54835219 185.55892143 50.37842123 188.36728534 61.0625 187.4375 C67.51356289 186.20363707 72.65483356 184.41025188 77.0625 179.4375 C78.22237184 175.61674572 78.57937252 173.56143756 76.8984375 169.90625 C74.72105657 166.97836756 72.91662501 165.97621448 69.625 164.4375 C68.56410156 163.93476563 67.50320313 163.43203125 66.41015625 162.9140625 C62.20443153 161.05902873 57.95438614 159.34006975 53.65625 157.7109375 C50.80381405 156.31049455 49.10422228 154.85972507 47.0625 152.4375 C46.0625 149.4375 46.0625 149.4375 46.0625 146.4375 C49.12120696 142.39312277 52.93506315 141.15652879 57.625 139.75 C58.29724609 139.53794922 58.96949219 139.32589844 59.66210938 139.10742188 C61.45938891 138.5416447 63.26075383 137.98888762 65.0625 137.4375 C66.0525 137.1075 67.0425 136.7775 68.0625 136.4375 C69.02320434 133.55538698 69.16831883 131.73899956 69.125 128.75 C69.11597656 127.94175781 69.10695313 127.13351563 69.09765625 126.30078125 C69.08605469 125.68589844 69.07445312 125.07101563 69.0625 124.4375 C57.78565459 118.05437996 45.71643486 118.00121574 33.0625 117.4375 C31.0891297 123.77305729 29.31345614 130.14636667 27.625 136.5625 C27.41029053 137.37710693 27.19558105 138.19171387 26.97436523 139.03100586 C25.92862294 143.0274457 24.91156205 147.02761541 23.95703125 151.046875 C23.78421631 151.7672998 23.61140137 152.48772461 23.43334961 153.22998047 C22.96650965 155.19066232 22.51024546 157.15385365 22.0546875 159.1171875 C21.09406936 162.33185451 20.00303829 164.71270271 18.0625 167.4375 C15.19641871 168.87054064 13.24949217 168.74394155 10.0625 168.4375 C5.54556342 165.83554999 2.49964503 162.92223618 -0.75 158.875 C-1.17522949 158.35196289 -1.60045898 157.82892578 -2.03857422 157.29003906 C-3.34650897 155.67900487 -4.64330185 154.0595815 -5.9375 152.4375 C-10.81310452 146.35306792 -15.65911541 140.48072733 -21.30859375 135.09375 C-22.9375 133.4375 -22.9375 133.4375 -24.9375 130.4375 C-45.48723062 135.7014213 -64.86928186 144.26441746 -83.9375 153.4375 C-84.99227539 153.94297363 -86.04705078 154.44844727 -87.13378906 154.96923828 C-106.21888991 164.16760293 -124.61106858 174.38484318 -142.43188477 185.84619141 C-143.25873779 186.37132324 -144.08559082 186.89645508 -144.9375 187.4375 C-146.23868774 188.26773682 -146.23868774 188.26773682 -147.56616211 189.11474609 C-150.62855775 190.82297832 -152.48137139 190.95224256 -155.9375 190.4375 C-158.375 188.875 -158.375 188.875 -159.9375 186.4375 C-159.81156397 180.0305047 -157.35128123 176.64626357 -153.5 171.875 C-152.39875609 170.45388658 -151.29851132 169.03199841 -150.19921875 167.609375 C-149.6479834 166.90490234 -149.09674805 166.20042969 -148.52880859 165.47460938 C-124.98092729 135.32985308 -116.34610398 101.18120851 -108.89038086 64.23461914 C-108.66229736 63.12465576 -108.43421387 62.01469238 -108.19921875 60.87109375 C-108.00287842 59.89197021 -107.80653809 58.91284668 -107.60424805 57.90405273 C-106.9375 55.4375 -106.9375 55.4375 -104.9375 52.4375 C-103.4525 52.9325 -103.4525 52.9325 -101.9375 53.4375 C-101.47230481 64.22594142 -102.87354356 74.38812716 -104.625 85 C-104.82949265 86.26198715 -104.82949265 86.26198715 -105.03811646 87.54946899 C-108.87099678 111.13243503 -114.85976267 132.71815111 -124.9375 154.4375 C-124.39673828 154.11177002 -123.85597656 153.78604004 -123.29882812 153.45043945 C-103.9906078 141.85215497 -84.47177318 130.85675087 -64.0625 121.3125 C-62.32492432 120.49555664 -62.32492432 120.49555664 -60.55224609 119.66210938 C-54.12543353 116.70437338 -47.78808614 114.22233446 -40.9375 112.4375 C-44.25152788 107.00831738 -48.34726735 102.63191043 -52.75 98.0625 C-56.73012037 93.90673113 -60.69383044 89.760398 -64.453125 85.40234375 C-68.08485641 81.21168594 -71.94371067 77.2835432 -75.875 73.375 C-76.53951172 72.70662109 -77.20402344 72.03824219 -77.88867188 71.34960938 C-82.40668912 66.84035647 -87.09455854 62.59359882 -91.9375 58.4375 C-92.91332031 57.58027344 -93.88914062 56.72304687 -94.89453125 55.83984375 C-119.52652967 34.57747575 -146.70136195 16.98187552 -177.9375 7.4375 C-178.2675 5.7875 -178.5975 4.1375 -178.9375 2.4375 C-165.33576724 -2.09641092 -141.20431485 11.77168476 -129.28125 17.66796875 C-98.86150542 33.16053181 -68.25132652 55.04043472 -44.62426758 79.75439453 C-42.89999823 81.47492035 -41.09885333 83.03400931 -39.23828125 84.60546875 C-36.30180745 87.15186863 -33.60069779 89.79307134 -30.97265625 92.65625 C-30.31716797 93.36007813 -29.66167969 94.06390625 -28.98632812 94.7890625 C-27.64823267 96.23636339 -26.32809671 97.7004525 -25.02539062 99.1796875 C-21.53321033 103.01567619 -21.53321033 103.01567619 -16.8269043 104.73461914 C-14.46168176 104.48502279 -12.24925532 103.99444296 -9.9375 103.4375 C-8.11052517 103.16894988 -6.28083045 102.91844428 -4.44921875 102.68359375 C-3.50054932 102.55122314 -2.55187988 102.41885254 -1.57446289 102.2824707 C7.35309849 101.04912082 16.03418955 99.91327552 25.0625 100.4375 C25.29710937 99.76332031 25.53171875 99.08914062 25.7734375 98.39453125 C27.38412049 94.6997221 29.47420196 91.48298812 31.6875 88.125 C32.31785156 87.15723633 32.31785156 87.15723633 32.9609375 86.16992188 C33.99088241 84.58989276 35.02615628 83.01333953 36.0625 81.4375 C35.40765625 81.95699219 34.7528125 82.47648437 34.078125 83.01171875 C20.53762572 93.3583432 7.8421957 96.72991202 -8.9375 95.4375 C-22.74668344 93.0091902 -33.60704101 85.57277079 -41.9375 74.4375 C-49.14455143 63.50079946 -51.2905861 50.21830326 -48.9375 37.4375 C-45.24994052 23.12444696 -36.32744368 12.36622883 -23.8203125 4.76171875 C-15.97013945 1.15574495 -8.60114128 -0.09469974 0 0 Z M-24.203125 22.484375 C-32.03049951 30.89155503 -35.36993306 38.77459131 -35.203125 50.21484375 C-34.35346002 60.52327918 -29.4412209 67.57766274 -21.9375 74.4375 C-13.48737246 81.07911316 -4.50266668 82.4237466 6.0625 81.4375 C16.19983589 79.11738151 23.86059841 73.9281153 29.8125 65.453125 C34.47682568 57.93189983 36.27605387 50.09587767 34.4140625 41.4140625 C31.69777374 31.45433706 27.82700355 24.50302601 18.9375 19 C5.09238612 11.23700484 -11.98047717 11.44184489 -24.203125 22.484375 Z M37.0625 78.4375 C37.0625 81.4375 37.0625 81.4375 37.0625 81.4375 Z M3.875 120.9375 C3.12541016 121.08058594 2.37582031 121.22367187 1.60351562 121.37109375 C-0.24395906 121.72411439 -2.09079321 122.08048419 -3.9375 122.4375 C-0.13445186 127.62960472 3.82408542 132.59359762 8.0625 137.4375 C10.14682499 134.31101251 11.34808611 131.38019132 12.6875 127.875 C13.13351563 126.71871094 13.57953125 125.56242187 14.0390625 124.37109375 C15.17229941 121.64060157 15.17229941 121.64060157 15.0625 119.4375 C11.23108032 119.4375 7.62032618 120.21133195 3.875 120.9375 Z " fill="#980000" transform="translate(194.9375,61.5625)"/>
</svg>
